<svg xmlns="http://www.w3.org/2000/svg" width="600" height="360" viewBox="0 0 600 360">
  <defs>
    <radialGradient id="glow" cx="80%" cy="0%" r="80%">
      <stop offset="0%" stop-color="#7c5cff" stop-opacity="0.35"/>
      <stop offset="100%" stop-color="#0a0912" stop-opacity="0"/>
    </radialGradient>
    <linearGradient id="mark" x1="0" y1="0" x2="1" y2="1">
      <stop offset="0%" stop-color="#7c5cff"/>
      <stop offset="100%" stop-color="#c4b5fd"/>
    </linearGradient>
  </defs>
  <rect width="600" height="360" fill="#0a0912"/>
  <rect width="600" height="360" fill="url(#glow)"/>
  <rect x="0" y="0" width="150" height="360" fill="#0f0e17"/>
  <rect x="0" y="0" width="150" height="360" fill="none" stroke="#7c5cff" stroke-opacity="0.15"/>
  <rect x="24" y="28" width="18" height="18" rx="4" fill="url(#mark)" transform="rotate(45 33 37)"/>
  <rect x="24" y="70" width="102" height="10" rx="5" fill="#7c5cff"/>
  <rect x="24" y="94" width="80" height="8" rx="4" fill="#2a2740"/>
  <rect x="24" y="114" width="90" height="8" rx="4" fill="#2a2740"/>
  <rect x="24" y="134" width="70" height="8" rx="4" fill="#2a2740"/>
  <rect x="180" y="30" width="110" height="60" rx="10" fill="#1a1826" stroke="#7c5cff" stroke-opacity="0.15"/>
  <rect x="304" y="30" width="110" height="60" rx="10" fill="#1a1826" stroke="#7c5cff" stroke-opacity="0.15"/>
  <rect x="428" y="30" width="148" height="60" rx="10" fill="#1a1826" stroke="#7c5cff" stroke-opacity="0.15"/>
  <rect x="196" y="44" width="60" height="8" rx="4" fill="#4c3f8a"/>
  <rect x="196" y="60" width="40" height="10" rx="5" fill="#f5f3f7"/>
  <rect x="320" y="44" width="60" height="8" rx="4" fill="#4c3f8a"/>
  <rect x="320" y="60" width="40" height="10" rx="5" fill="#f5f3f7"/>
  <rect x="180" y="108" width="396" height="230" rx="14" fill="#1a1826" stroke="#7c5cff" stroke-opacity="0.15"/>
  <rect x="204" y="132" width="150" height="10" rx="5" fill="#9b98a3"/>
  <rect x="204" y="230" width="24" height="80" rx="5" fill="#4c3f8a"/>
  <rect x="244" y="200" width="24" height="110" rx="5" fill="#7c5cff"/>
  <rect x="284" y="215" width="24" height="95" rx="5" fill="#4c3f8a"/>
  <rect x="324" y="180" width="24" height="130" rx="5" fill="#7c5cff"/>
  <rect x="364" y="220" width="24" height="90" rx="5" fill="#4c3f8a"/>
  <circle cx="490" cy="200" r="46" fill="none" stroke="#7c5cff" stroke-width="14"/>
  <circle cx="490" cy="200" r="46" fill="none" stroke="#a78bfa" stroke-width="14" stroke-dasharray="80 300"/>
</svg>
