<svg xmlns="http://www.w3.org/2000/svg" width="600" height="360" viewBox="0 0 600 360">
  <defs>
    <radialGradient id="glow2" cx="20%" cy="0%" r="80%">
      <stop offset="0%" stop-color="#f9c909" stop-opacity="0.18"/>
      <stop offset="100%" stop-color="#0d0d0d" stop-opacity="0"/>
    </radialGradient>
  </defs>
  <rect width="600" height="360" fill="#0d0d0d"/>
  <rect width="600" height="360" fill="url(#glow2)"/>

  <rect x="24" y="24" width="552" height="46" rx="10" fill="#161616" stroke="#2a2a2a"/>
  <circle cx="48" cy="47" r="8" fill="#f9c909"/>
  <rect x="66" y="41" width="90" height="12" rx="6" fill="#3a3a3a"/>
  <rect x="470" y="35" width="90" height="24" rx="12" fill="#f9c909"/>

  <rect x="24" y="86" width="176" height="130" rx="12" fill="#161616" stroke="#262626"/>
  <rect x="24" y="228" width="176" height="130" rx="12" fill="#161616" stroke="#262626"/>
  <rect x="212" y="86" width="176" height="130" rx="12" fill="#161616" stroke="#262626"/>
  <rect x="212" y="228" width="176" height="130" rx="12" fill="#161616" stroke="#262626"/>

  <rect x="40" y="100" width="144" height="72" rx="8" fill="#242424"/>
  <rect x="40" y="182" width="90" height="10" rx="5" fill="#4a4a4a"/>
  <rect x="40" y="198" width="50" height="10" rx="5" fill="#f9c909"/>

  <rect x="40" y="242" width="144" height="72" rx="8" fill="#242424"/>
  <rect x="40" y="324" width="90" height="10" rx="5" fill="#4a4a4a"/>
  <rect x="40" y="340" width="50" height="10" rx="5" fill="#f9c909"/>

  <rect x="228" y="100" width="144" height="72" rx="8" fill="#242424"/>
  <rect x="228" y="182" width="90" height="10" rx="5" fill="#4a4a4a"/>
  <rect x="228" y="198" width="50" height="10" rx="5" fill="#f9c909"/>

  <rect x="228" y="242" width="144" height="72" rx="8" fill="#242424"/>
  <rect x="228" y="324" width="90" height="10" rx="5" fill="#4a4a4a"/>
  <rect x="228" y="340" width="50" height="10" rx="5" fill="#f9c909"/>

  <rect x="404" y="86" width="172" height="272" rx="14" fill="#161616" stroke="#262626"/>
  <rect x="420" y="104" width="90" height="12" rx="6" fill="#e6e6e6"/>
  <circle cx="490" cy="150" r="30" fill="none" stroke="#f9c909" stroke-width="3"/>
  <path d="M478 150 h24 M490 138 v24" stroke="#f9c909" stroke-width="3" stroke-linecap="round"/>
  <rect x="420" y="198" width="140" height="10" rx="5" fill="#3a3a3a"/>
  <rect x="420" y="216" width="100" height="10" rx="5" fill="#3a3a3a"/>
  <rect x="420" y="248" width="140" height="34" rx="8" fill="#f9c909"/>
  <rect x="420" y="296" width="140" height="34" rx="8" fill="none" stroke="#3a3a3a"/>
</svg>
